HIERARCHY
ROOT ui
{
	 OFFSET 0 0 0
	 CHANNELS 3 XPosition YPosition Z Position
	 EndSite
	 {
	 OFFSET 0 -1 0
	 }
}
ROOT li
{
	 OFFSET 0 0 0
	 CHANNELS 3 XPosition YPosition Z Position
	 EndSite
	 {
	 OFFSET 0 -1 0
	 }
}
ROOT ul
{
	 OFFSET 0 0 0
	 CHANNELS 3 XPosition YPosition Z Position
	 EndSite
	 {
	 OFFSET 0 -1 0
	 }
}
ROOT ll
{
	 OFFSET 0 0 0
	 CHANNELS 3 XPosition YPosition Z Position
	 EndSite
	 {
	 OFFSET 0 -1 0
	 }
}
ROOT tt
{
	 OFFSET 0 0 0
	 CHANNELS 3 XPosition YPosition Z Position
	 EndSite
	 {
	 OFFSET 0 -1 0
	 }
}
ROOT tb
{
	 OFFSET 0 0 0
	 CHANNELS 3 XPosition YPosition Z Position
	 EndSite
	 {
	 OFFSET 0 -1 0
	 }
}
ROOT td
{
	 OFFSET 0 0 0
	 CHANNELS 3 XPosition YPosition Z Position
	 EndSite
	 {
	 OFFSET 0 -1 0
	 }
}
ROOT v
{
	 OFFSET 0 0 0
	 CHANNELS 3 XPosition YPosition Z Position
	 EndSite
	 {
	 OFFSET 0 -1 0
	 }
}
ROOT bn
{
	 OFFSET 0 0 0
	 CHANNELS 3 XPosition YPosition Z Position
	 EndSite
	 {
	 OFFSET 0 -1 0
	 }
}
MOTION
Frames: 27
Frame Time: 0.002
0.024217533111572265	0.0028934481143951417	0		0.5697750854492187	-2.500474609375	0		-0.9990757446289062	0.3345556640625	0		-0.4627303466796875	-2.802748779296875	0		1.2160960693359375	-0.8057174072265625	0		2.61187939453125	-0.041546092987060544	0		4.1822021484375	0.24160858154296874	0		5.80222021484375	0.16736839294433595	0		-0.41005386352539064	5.87121337890625	0		
-0.004790353775024414	-9.243839979171753E-4	0		0.5590841674804687	-2.49445166015625	0		-1.0031124267578124	0.33037161254882813	0		-0.40060443115234373	-2.815633544921875	0		1.2131640625	-0.8087312622070313	0		2.58890869140625	-0.04221978759765625	0		4.1822177734375	0.2418037872314453	0		5.8000126953125	0.14550784301757813	0		-0.2782367858886719	5.8935400390625	0		
-0.0047508029937744145	-0.0010697519779205322	0		0.5552884521484375	-2.498504638671875	0		-0.9990560913085937	0.33409735107421873	0		-0.4753462829589844	-2.816971435546875	0		1.21617041015625	-0.8178074340820313	0		2.58489599609375	-0.047102272033691404	0		4.187158203125	0.23495428466796875	0		5.80005322265625	0.14610125732421875	0		-0.397807861328125	5.8837060546875	0		
-0.004712265014648437	-0.00121185302734375	0		0.5783923950195312	-2.5118544921875	0		-0.9890465698242188	0.33375982666015624	0		-0.3992854309082031	-2.83699755859375	0		1.216278076171875	-0.81784619140625	0		2.5920380859375	-0.038103557586669924	0		4.1723115234375	0.24733322143554687	0		5.80442041015625	0.1569714660644531	0		-0.3973009948730469	5.88052001953125	0		
-6.34967029094696E-4	0.002605700969696045	0		0.5727799682617187	-2.498878173828125	0		-1.0480045166015626	0.3371905822753906	0		-0.46290020751953126	-2.826462646484375	0		1.24023486328125	-0.8311461181640625	0		2.6262490234375	-0.022400468826293946	0		4.198388671875	0.2532576141357422	0		5.818861328125	0.18833270263671875	0		-0.43181341552734376	5.875724609375	0		
-6.103619933128356E-4	0.0024728450775146483	0		0.5709857788085938	-2.5009423828125	0		-0.9899557495117187	0.34133670043945313	0		-0.41572549438476564	-2.834147705078125	0		1.228327880859375	-0.8310467529296875	0		2.596156982421875	-0.032990612030029294	0		4.189404296875	0.254564208984375	0		5.80320751953125	0.19107009887695312	0		-0.4152885131835938	5.87337060546875	0		
-0.00464023494720459	-0.0016108989715576173	0		0.5661161499023437	-2.507970947265625	0		-0.9899683837890625	0.34113302612304686	0		-0.44262261962890626	-2.8460126953125	0		1.229263916015625	-0.8440897216796875	0		2.60723779296875	-0.027038232803344726	0		4.1893984375	0.25475933837890624	0		5.8088310546875	0.16898532104492187	0		-0.429835205078125	5.86336376953125	0		
-0.004639918804168701	-0.0017331119775772096	0		0.5662953491210938	-2.508052490234375	0		-0.9840361328125	0.33687582397460936	0		-0.4274417419433594	-2.848328125	0		1.232216064453125	-0.8541557006835937	0		2.5992294921875	-0.027887426376342773	0		4.1723056640625	0.24812075805664063	0		5.80884228515625	0.16949398803710938	0		-0.4443717041015625	5.85236328125	0		
-0.004654379844665527	-0.0018493640422821045	0		0.549379150390625	-2.513948974609375	0		-1.0531221923828125	0.332438232421875	0		-0.4404544677734375	-2.8653310546875	0		1.232256591796875	-0.854192138671875	0		2.621344482421875	-0.016072792053222658	0		4.198337890625	0.25399424743652343	0		5.80532763671875	0.18214598083496095	0		-0.4647090148925781	5.85743359375	0		
-6.414120197296143E-4	0.001998010039329529	0		0.5696084594726563	-2.503241455078125	0		-0.9650474853515625	0.3433276672363281	0		-0.408376953125	-2.87080712890625	0		1.232275390625	-0.8542316284179687	0		2.599188720703125	-0.02779763412475586	0		4.19743310546875	0.2671329040527344	0		5.8131513671875	0.18059445190429688	0		-0.43100863647460935	5.86293408203125	0		
-6.857489943504334E-4	0.001895995020866394	0		0.5696849975585937	-2.50331591796875	0		-1.0441463623046876	0.3400201110839844	0		-0.4113250732421875	-2.874896728515625	0		1.250069091796875	-0.8734646606445312	0		2.6262080078125	-0.022061891555786133	0		4.20130126953125	0.2601912841796875	0		5.817451171875	0.1911737518310547	0		-0.44545205688476563	5.85196044921875	0		
-7.436270117759705E-4	0.0018019870519638062	0		0.5666728515625	-2.50835546875	0		-1.01720849609375	0.34059869384765623	0		-0.41834359741210936	-2.881932373046875	0		1.2419400634765625	-0.883424072265625	0		2.63107666015625	-0.029105186462402344	0		4.19816943359375	0.2542947082519531	0		5.82161865234375	0.17399935913085937	0		-0.31350360107421876	5.8734482421875	0		
-0.0048558077812194825	-0.0022412359714508055	0		0.5646565551757813	-2.510403076171875	0		-1.05428662109375	0.3408738403320313	0		-0.4233908386230469	-2.887977294921875	0		1.23986474609375	-0.886451416015625	0		2.63100732421875	-0.029112415313720705	0		4.2060810546875	0.2532496948242188	0		5.817369140625	0.1915614013671875	0		-0.44598468017578125	5.85175	0		
-8.943340182304382E-4	0.0016388380527496338	0		0.57555029296875	-2.517585205078125	0		-1.0443848876953126	0.3396705017089844	0		-0.4264573669433594	-2.892031005859375	0		1.2457271728515624	-0.8935676879882812	0		2.630927490234375	-0.02913870429992676	0		4.199921875	0.24631771850585937	0		5.8307373046875	0.16186842346191407	0		-0.45102032470703124	5.8667158203125	0		
-9.830790162086488E-4	0.0015697599649429322	0		0.52758984375	-2.50714404296875	0		-1.0353924560546874	0.3474976806640625	0		-0.42652291870117187	-2.892103515625	0		1.2575079345703124	-0.9067525634765625	0		2.634891357421875	-0.024229137420654297	0		4.20995703125	0.25817620849609374	0		5.83431640625	0.17903799438476561	0		-0.4652713317871094	5.85579150390625	0		
-0.0010771620273590087	0.0015088529586791992	0		0.6013546142578124	-2.519987060546875	0		-0.96553125	0.34270281982421874	0		-0.4337130432128906	-2.90008837890625	0		1.2523470458984376	-0.912765625	0		2.627692138671875	-0.03422659683227539	0		4.2008857421875	0.260192626953125	0		5.8342490234375	0.1788904571533203	0		-0.4473631591796875	5.85354296875	0		
-0.0011734579801559448	0.001455623984336853	0		0.564313232421875	-2.510659912109375	0		-0.9705792846679687	0.34671835327148437	0		-0.41887994384765626	-2.902292724609375	0		1.2940745849609374	-0.9282828369140625	0		2.62355322265625	-0.03828141784667969	0		4.2057197265625	0.25301649475097654	0		5.8184951171875	0.18076039123535156	0		-0.447361328125	5.8534970703125	0		
-0.005310669898986816	-0.0025481269359588624	0		0.5720270385742188	-2.52180712890625	0		-0.9757062377929687	0.3427538146972656	0		-0.4481968383789062	-2.915018798828125	0		1.255869384765625	-0.93596435546875	0		2.639445556640625	-0.03957473373413086	0		4.2056318359375	0.25284596252441405	0		5.8184228515625	0.1803819580078125	0		-0.4472836608886719	5.8534638671875	0		
-0.005400578022003174	-0.0025883190631866455	0		0.5468855590820313	-2.51660595703125	0		-1.0397779541015626	0.34343536376953127	0		-0.4195068359375	-2.92434814453125	0		1.310439208984375	-0.9646411743164063	0		2.6363115234375	-0.0436942138671875	0		4.21353125	0.25054335021972657	0		5.8305234375	0.18995297241210937	0		-0.45197760009765625	5.86749462890625	0		
0.023560518264770507	0.0010666240453720093	0		0.5726353149414063	-2.51994873046875	0		-1.045785400390625	0.34852072143554685	0		-0.4537116394042969	-2.9209970703125	0		1.27339453125	-0.956352294921875	0		2.65900341796875	-0.06511727905273437	0		4.21346484375	0.250279296875	0		5.83409423828125	0.2048183135986328	0		-0.43278240966796877	5.86328125	0		
-0.00150388503074646	0.0013040770292282104	0		0.5724032592773437	-2.520016357421875	0		-0.976789306640625	0.351817138671875	0		-0.4270900573730469	-2.932286865234375	0		1.313069580078125	-0.9748955078125	0		2.65214892578125	-0.04524838256835938	0		4.21035107421875	0.24400418090820314	0		5.838931640625	0.1814790496826172	0		-0.43147259521484377	5.86226904296875	0		
0.020401636123657228	-0.0029590790271759033	0		0.5592042846679688	-2.515944580078125	0		-0.9818552856445313	0.3479212951660156	0		-0.4663841247558594	-2.933856689453125	0		1.307869384765625	-0.9819666748046875	0		2.656705078125	-0.08152886962890625	0		4.2203193359375	0.24354795837402343	0		5.8291015625	0.225897216796875	0		-0.4320622863769531	5.8632880859375	0		
-0.0056314668655395505	-0.0026973400115966797	0		0.5569308471679687	-2.517991455078125	0		-0.985903076171875	0.3440295715332031	0		-0.4058284912109375	-2.948502197265625	0		1.314542236328125	-1.0011754150390626	0		2.65666357421875	-0.08177881622314453	0		4.21915283203125	0.22917471313476562	0		5.83464892578125	0.19715753173828124	0		-0.4174818420410156	5.8731513671875	0		
-0.005652749061584473	-0.002712376117706299	0		0.5406055908203125	-2.52388330078125	0		-1.0558321533203125	0.3498784484863281	0		-0.4631810607910156	-2.95285107421875	0		1.3203486328125	-1.0083814697265625	0		2.693335205078125	-0.10945258331298828	0		4.21915380859375	0.22875857543945313	0		5.84386181640625	0.18900048828125	0		-0.46896417236328125	5.871748046875	0		
0.00545831298828125	0.00815522575378418	0		0.5713801879882813	-2.52029345703125	0		-1.0358302001953126	0.34775399780273436	0		-0.42850613403320315	-2.954202880859375	0		1.3292015380859374	-1.0116261596679688	0		2.681581298828125	-0.08560562896728516	0		4.238154296875	0.22710661315917968	0		5.8418837890625	0.22779075622558595	0		-0.39925686645507813	5.88201806640625	0		
-0.0016208839416503905	0.0012298829555511474	0		0.5700846557617187	-2.522347412109375	0		-0.9817868041992187	0.3482554016113281	0		-0.4468135986328125	-2.95295849609375	0		1.338921630859375	-1.02688427734375	0		2.676345947265625	-0.10584056854248047	0		4.23712060546875	0.22165830993652344	0		5.83822412109375	0.20948927307128906	0		-0.415725830078125	5.8732490234375	0		
-0.0016166520118713378	0.001232470989227295	0		0.5637288818359375	-2.52933984375	0		-0.9908340454101563	0.3404696960449219	0		-0.4212647399902344	-2.9642001953125	0		1.3367774658203124	-1.030008056640625	0		2.676338134765625	-0.10613620758056641	0		4.24106982421875	0.21414396667480468	0		5.83821337890625	0.20836314392089844	0		-0.2798382568359375	5.892765625	0		
